<?xml version="1.0" encoding="UTF-8" standalone="no"?>
<svg
   xmlns:dc="http://purl.org/dc/elements/1.1/"
   xmlns:cc="http://creativecommons.org/ns#"
   xmlns:rdf="http://www.w3.org/1999/02/22-rdf-syntax-ns#"
   xmlns:svg="http://www.w3.org/2000/svg"
   xmlns="http://www.w3.org/2000/svg"
   xmlns:sodipodi="http://sodipodi.sourceforge.net/DTD/sodipodi-0.dtd"
   xmlns:inkscape="http://www.inkscape.org/namespaces/inkscape"
   width="78.657"
   height="18"
   version="1.1"
   viewBox="0 0 20.811332 4.7624926"
   id="svg16"
   sodipodi:docname="zorza_text.svg"
   inkscape:version="0.92.4 5da689c313, 2019-01-14">
  <defs
     id="defs20" />
  <sodipodi:namedview
     pagecolor="#000000"
     bordercolor="#666666"
     borderopacity="1"
     objecttolerance="10"
     gridtolerance="10"
     guidetolerance="10"
     inkscape:pageopacity="0"
     inkscape:pageshadow="2"
     inkscape:window-width="712"
     inkscape:window-height="480"
     id="namedview18"
     showgrid="false"
     inkscape:pagecheckerboard="false"
     inkscape:zoom="4.6404009"
     inkscape:cx="51.295222"
     inkscape:cy="6.8270711"
     inkscape:window-x="0"
     inkscape:window-y="0"
     inkscape:window-maximized="0"
     inkscape:current-layer="svg16" />
  <metadata
     id="metadata2">
    <rdf:RDF>
      <cc:Work
         rdf:about="">
        <dc:format>image/svg+xml</dc:format>
        <dc:type
           rdf:resource="http://purl.org/dc/dcmitype/StillImage" />
        <dc:title></dc:title>
      </cc:Work>
    </rdf:RDF>
  </metadata>
  <g
     aria-label="オーロラ"
     style="font-style:normal;font-variant:normal;font-weight:normal;font-stretch:normal;font-size:5.15043449px;line-height:1.25;font-family:Dosis;-inkscape-font-specification:Dosis;letter-spacing:0px;word-spacing:0px;fill:#000000;fill-opacity:1;stroke:none;stroke-width:0.21460143"
     id="text3727">
    <path
       d="m 2.3747799,3.9869536 0.2060174,0.5253443 q 0.010301,-0.00515 0.5201939,-0.00515 0.509893,0 0.509893,-0.4583887 V 1.7465146 h 0.9425295 q 0.1133096,0 0.2060174,0.025752 l 0.061805,-0.47384 Q 4.7130772,1.324179 4.5946172,1.324179 H 3.6108842 V 0.73702945 Q 3.6057338,0.5361625 3.6829903,0.29924252 L 3.1421947,0.22713643 q 0.061805,0.35022955 0.061805,0.43778694 L 3.2143007,1.324179 h -2.003519 q -0.020602,0 -0.036053,0 -0.25752173,0 -0.48414085,-0.066956 L 0.89145479,1.7877181 Q 1.0562687,1.7413642 1.2107817,1.7413642 H 3.0134338 Q 2.2305678,2.9671676 0.62878263,3.7757858 L 0.94810957,4.1363162 Q 2.7404608,2.9929198 3.2143007,2.1224963 l -0.010301,1.7408469 q 0,0.1648139 -0.087557,0.2060174 -0.036053,0.015451 -0.2163183,0.015451 -0.1802652,0 -0.5253443,-0.097858 z"
       style="fill:#ffffff;stroke-width:0.21460143"
       id="path4534" />
    <path
       d="M 5.8822258,2.6890441 H 8.9827874 L 9.7811047,2.7508493 9.9098656,2.2976111 8.9827874,2.3233633 H 6.3148623 L 5.6607571,2.1636998 Z"
       style="fill:#ffffff;stroke-width:0.21460143"
       id="path4536" />
    <path
       d="m 11.594058,4.1466171 h 2.631872 v 0.077256 q 0,0.1339113 -0.0309,0.2472209 h 0.453238 q -0.0206,-0.1133096 -0.0206,-0.23692 V 0.97909987 L 14.359841,0.72672858 H 11.192324 V 4.2599266 q 0,0.1287609 -0.0206,0.2111679 h 0.453238 q -0.0309,-0.056655 -0.0309,-0.1751148 z M 14.22593,1.1490642 V 3.7500336 H 11.594058 V 1.123312 h 2.60612 q 0.0103,0.015451 0.02575,0.025752 z"
       style="fill:#ffffff;stroke-width:0.21460143"
       id="path4538" />
    <path
       d="M 19.525727,1.1078607 V 0.65977293 q -0.05665,0.0309026 -0.247221,0.0309026 h -2.425855 q -0.211168,0 -0.24207,-0.0309026 V 1.1078607 q 0.11846,-0.025752 0.252371,-0.025752 h 2.446457 q 0.12361,0.00515 0.216318,0.025752 z m -0.01545,1.1691487 Q 19.360913,2.7096459 19.057037,3.0804771 18.562596,3.6933788 17.893039,3.919998 17.326491,4.1157145 16.785696,4.1363162 l 0.298725,0.4326365 q 0.211168,-0.051504 0.278123,-0.061805 0.597451,-0.097858 1.133096,-0.4223356 0.767415,-0.47384 1.18975,-1.2155026 0.190566,-0.3347782 0.283274,-0.7210608 l -0.23692,-0.2678226 h -3.19842 q -0.144212,0 -0.24207,-0.020602 V 2.307912 q 0.0618,-0.030903 0.247221,-0.030903 z"
       style="fill:#ffffff;stroke-width:0.21460143"
       id="path4540" />
  </g>
</svg>
